<?xml version="1.0" standalone="no"?>
<!DOCTYPE svg PUBLIC "-//W3C//DTD SVG 20010904//EN"
 "http://www.w3.org/TR/2001/REC-SVG-20010904/DTD/svg10.dtd">
<svg version="1.0" xmlns="http://www.w3.org/2000/svg"
 width="700.000000pt" height="700.000000pt" viewBox="0 0 700.000000 700.000000"
 preserveAspectRatio="xMidYMid meet">
<metadata>
Created by potrace 1.14, written by Peter Selinger 2001-2017
</metadata>
<g transform="translate(0.000000,700.000000) scale(0.100000,-0.100000)"
fill="#000000" stroke="none">
<path d="M3168 6405 c-1 -1 -43 -6 -93 -9 -106 -8 -123 -11 -275 -37 -477 -83
-931 -313 -1290 -654 -266 -253 -496 -586 -650 -940 -55 -126 -153 -427 -174
-535 -3 -14 -14 -69 -25 -123 -12 -54 -24 -123 -27 -154 -3 -31 -8 -66 -10
-77 -19 -94 -25 -481 -11 -653 33 -402 145 -825 303 -1149 68 -139 184 -336
246 -419 214 -283 380 -443 637 -613 188 -124 473 -259 651 -309 89 -24 243
-63 275 -68 17 -3 55 -10 85 -15 185 -33 329 -43 595 -44 199 0 346 6 415 18
14 2 48 7 75 10 28 3 64 8 80 12 275 51 509 130 723 246 87 46 94 49 120 36
15 -8 144 -86 287 -174 l260 -159 409 -1 c297 0 404 2 393 10 -9 6 -234 144
-501 306 -421 256 -517 320 -478 320 28 0 379 384 399 436 3 8 9 14 13 14 5 0
138 -79 296 -175 l287 -175 405 0 c223 0 403 3 400 6 -8 7 -149 94 -154 94 -2
0 -27 15 -56 34 -61 39 -413 254 -443 270 -11 6 -31 19 -45 27 -14 9 -119 74
-235 144 -115 71 -214 132 -219 136 -4 4 13 51 39 106 102 214 189 474 240
718 28 132 33 165 41 240 4 33 8 63 10 66 5 10 17 233 17 334 1 119 -14 331
-28 415 -2 14 -9 54 -15 90 -9 61 -14 88 -24 135 -117 562 -419 1131 -801
1510 -282 279 -616 486 -986 610 -97 33 -323 89 -404 100 -22 3 -53 7 -70 10
-16 3 -52 7 -80 10 -27 3 -68 8 -90 11 -46 5 -511 14 -517 9z m407 -399 c117
-14 145 -19 238 -42 365 -91 680 -313 944 -664 97 -129 238 -392 316 -590 39
-99 61 -168 127 -400 17 -56 59 -274 65 -335 4 -31 8 -66 11 -78 25 -131 25
-653 0 -793 -2 -11 -7 -41 -10 -67 -4 -27 -9 -56 -10 -65 -12 -66 -16 -92 -22
-127 -3 -22 -8 -43 -10 -46 -2 -3 -6 -19 -8 -36 -7 -37 -53 -216 -67 -261 -6
-18 -14 -32 -18 -30 -4 2 -67 39 -140 83 -72 44 -140 85 -149 90 -10 6 -64 39
-121 74 l-104 65 -403 0 c-222 1 -404 -1 -404 -4 1 -3 138 -88 306 -190 168
-102 369 -224 447 -272 78 -48 188 -115 245 -150 57 -35 112 -68 123 -74 43
-24 43 -30 -4 -118 -62 -117 -145 -243 -229 -349 -62 -77 -73 -86 -87 -75 -9
7 -27 19 -41 27 -54 31 -257 154 -290 176 -36 23 -331 203 -385 235 -16 9 -46
27 -65 38 -34 20 -49 20 -438 20 l-404 0 34 -22 c18 -13 65 -42 103 -65 39
-23 77 -46 85 -51 40 -26 269 -165 295 -180 29 -17 377 -230 583 -356 57 -35
106 -64 108 -64 3 0 26 -14 51 -31 l45 -32 -53 -33 c-138 -87 -325 -160 -484
-188 -16 -3 -41 -8 -55 -11 -93 -19 -321 -25 -480 -13 -392 31 -734 188 -1018
466 -145 142 -222 244 -330 435 -152 269 -265 589 -322 912 -5 28 -11 66 -15
85 -9 46 -13 73 -20 145 -4 33 -8 71 -10 84 -23 141 -23 592 -1 731 2 14 7 50
11 80 13 108 17 136 41 254 105 522 337 998 635 1308 244 252 509 409 799 473
98 22 119 25 195 31 39 3 71 7 72 8 5 5 270 -2 318 -8z"/>
</g>
</svg>
